 <svg version="1.0" xmlns="http://www.w3.org/2000/svg"  width="300.000000pt" height="131.000000pt" viewBox="0 0 300.000000 131.000000"  preserveAspectRatio="xMidYMid meet">  <g transform="translate(0.000000,131.000000) scale(0.100000,-0.100000)" fill="#000000" stroke="none"> <path d="M2147 1114 c-4 -4 -7 -160 -7 -346 l0 -338 30 0 30 0 0 168 0 168 45 47 c49 52 70 108 60 166 -8 46 -36 95 -67 114 -28 18 -81 30 -91 21z m66 -35 c34 -18 60 -49 64 -78 14 -82 -4 -136 -67 -194 -24 -23 -30 -38 -31 -70 -1 -23 -2 -56 -2 -74 -1 -18 -3 -30 -7 -27 -3 3 -5 107 -5 230 0 239 0 238 48 213z m-41 -491 c-7 -7 -10 -5 -7 8 5 29 6 30 12 16 3 -8 1 -18 -5 -24z m8 -112 c0 -3 -4 -8 -10 -11 -5 -3 -10 -1 -10 4 0 6 5 11 10 11 6 0 10 -2 10 -4z"/> <path d="M1690 1099 l-25 -9 2 -327 c1 -181 4 -327 7 -325 3 1 22 2 42 2 l35 0 -3 120 c-2 66 -1 120 3 120 3 0 51 -54 107 -119 l103 -119 57 -4 c31 -2 59 -3 61 -1 2 1 -36 46 -84 100 -186 207 -169 184 -146 199 10 8 50 39 87 70 38 30 75 59 84 64 8 5 12 12 8 15 -16 17 -63 -10 -167 -95 l-111 -91 0 206 c0 225 2 217 -60 194z m34 -191 c-1 -95 3 -181 8 -191 5 -10 6 -26 2 -35 -4 -9 -8 -62 -9 -117 -1 -85 -3 -100 -17 -103 -15 -3 -17 9 -18 105 -2 293 0 495 5 504 4 5 12 9 18 9 9 0 12 -44 11 -172z m96 -196 c0 -5 8 -17 18 -28 9 -10 46 -53 82 -94 36 -41 73 -83 83 -94 23 -27 22 -36 -7 -36 -19 0 -48 27 -125 117 -89 105 -98 118 -83 130 20 14 32 16 32 5z"/> <path  d="M2868 1063 l-38 -15 0 -312 0 -311 45 0 45 0 0 322 c0 177 -3 324 -7 326 -5 3 -25 -2 -45 -10z m26 -315 c-1 -265 -3 -293 -18 -293 -15 0 -17 28 -19 280 -3 235 -1 283 11 297 8 10 17 16 21 14 3 -2 6 -136 5 -298z"/> <path d="M285 962 c-110 -52 -169 -147 -168 -267 0 -85 17 -129 74 -190 53 -57 97 -80 182 -96 94 -17 178 6 248 68 48 44 49 46 30 60 -19 13 -23 11 -52 -22 -114 -130 -313 -82 -364 87 -20 68 -19 103 5 180 63 204 334 231 401 38 13 -35 24 -38 39 -9 10 17 7 27 -16 60 -79 115 -245 154 -379 91z m95 4 c0 -2 -7 -7 -16 -10 -8 -3 -12 -2 -9 4 6 10 25 14 25 6z m-40 -10 c0 -3 -24 -29 -52 -58 -120 -121 -122 -296 -5 -412 38 -37 44 -46 26 -41 -27 8 -78 45 -110 78 -80 83 -78 276 3 354 44 42 138 96 138 79z"/> <path fill="#05f901" d="M865 903 c-110 -57 -190 -217 -165 -329 23 -105 87 -157 190 -157 64 0 105 18 147 67 45 50 58 98 58 211 0 117 -16 162 -74 201 -42 28 -110 32 -156 7z m139 -23 c34 -20 47 -41 66 -102 12 -40 12 -140 -1 -173 -4 -11 -10 -32 -13 -47 -8 -34 -50 -84 -88 -104 -76 -39 -195 -6 -226 64 -22 50 -25 153 -5 200 61 147 178 218 267 162z"/> 
 <path fill="#05f901" d="M1307 890 c-106 -67 -169 -225 -137 -342 23 -81 89 -129 179 -131 112 -3 179 60 208 196 38 175 -30 307 -157 307 -34 0 -58 -8 -93 -30z m178 -20 c13 -12 31 -37 39 -55 21 -44 21 -186 0 -240 -8 -22 -17 -48 -20 -57 -8 -24 -92 -78 -123 -79 -108 -4 -159 27 -184 112 -25 85 -8 162 60 266 10 15 38 39 63 55 38 25 53 29 93 25 31 -3 56 -12 72 -27z"/> 
 <path  d="M2473 884 c-84 -42 -168 -178 -166 -270 2 -67 41 -145 86 -173 68 -42 170 -22 235 46 l43 45 -6 -56 -6 -56 31 0 30 0 0 240 c0 252 0 251 -43 234 -12 -4 -14 -15 -10 -42 l6 -36 -40 42 c-35 37 -45 42 -84 42 -24 0 -59 -8 -76 -16z m147 -30 l25 -26 -28 17 c-30 19 -87 22 -128 7 -33 -13 -89 -60 -89 -76 0 -7 -7 -13 -15 -13 -23 0 -18 9 29 56 75 74 155 87 206 35z m79 -222 c0 -101 -3 -181 -7 -177 -3 3 -7 33 -8 66 -2 56 -14 100 -14 50 0 -12 -18 -40 -41 -64 -23 -23 -37 -35 -30 -26 6 9 9 19 6 22 -3 4 -2 5 2 2 11 -8 32 30 44 81 15 68 12 169 -7 206 -16 30 -15 31 6 25 14 -3 23 0 27 10 15 38 22 -24 22 -195z m-97 181 c48 -55 54 -148 15 -233 -29 -65 -58 -97 -104 -117 -44 -18 -83 -10 -116 25 -37 39 -49 79 -41 137 8 63 22 90 73 143 56 58 142 80 173 45z"/> </g> </svg> 